<svg width="16" height="16" viewBox="0 0 16 16" fill="none" xmlns="http://www.w3.org/2000/svg">
<path fill-rule="evenodd" clip-rule="evenodd" d="M8 1C4.13401 1 1 4.13401 1 8C1 11.866 4.13401 15 8 15C11.866 15 15 11.866 15 8C15 4.13401 11.866 1 8 1ZM0 8C0 3.58172 3.58172 0 8 0C12.4183 0 16 3.58172 16 8C16 12.4183 12.4183 16 8 16C3.58172 16 0 12.4183 0 8Z" fill="#1D89ED"/>
<path d="M7.56592 5.11011V7.83911H8.65527C9.16813 7.83911 9.55933 7.71932 9.82886 7.47974C10.0984 7.23641 10.2332 6.8995 10.2332 6.46899C10.2332 6.04224 10.0984 5.70907 9.82886 5.46948C9.56307 5.2299 9.17375 5.11011 8.66089 5.11011H7.56592ZM9.81201 10.8545H7.56592V12H6.11719V10.8545H5.06152V9.89429H6.11719V8.99023H5.06152V7.85596H6.11719V3.89722H9.08203C9.86442 3.89722 10.4971 4.1368 10.98 4.61597C11.4629 5.09513 11.7043 5.70907 11.7043 6.45776C11.7043 7.20272 11.4554 7.81478 10.9575 8.29395C10.4634 8.76937 9.81763 9.00708 9.02026 9.00708H7.56592V9.89429H9.81201V10.8545Z" fill="#1D89ED"/>
</svg>
