<svg width="18" height="18" viewBox="0 0 18 18" fill="none" xmlns="http://www.w3.org/2000/svg">
<path fill-rule="evenodd" clip-rule="evenodd" d="M9 2C5.13401 2 2 5.13401 2 9C2 12.866 5.13401 16 9 16C12.866 16 16 12.866 16 9C16 5.13401 12.866 2 9 2ZM1 9C1 4.58172 4.58172 1 9 1C13.4183 1 17 4.58172 17 9C17 13.4183 13.4183 17 9 17C4.58172 17 1 13.4183 1 9Z" fill="#1D89ED"/>
<path d="M8.17358 4.8916H9.729L9.59985 10.3215H8.30273L8.17358 4.8916ZM8.02197 12.2532C8.02197 11.9799 8.1062 11.7628 8.27466 11.6018C8.44312 11.4371 8.6696 11.3547 8.9541 11.3547C9.23861 11.3547 9.46509 11.4371 9.63354 11.6018C9.802 11.7628 9.88623 11.9799 9.88623 12.2532C9.88623 12.5227 9.802 12.7398 9.63354 12.9045C9.46509 13.0655 9.23861 13.146 8.9541 13.146C8.6696 13.146 8.44312 13.0655 8.27466 12.9045C8.1062 12.7398 8.02197 12.5227 8.02197 12.2532Z" fill="#1D89ED"/>
</svg>
